<svg xmlns="http://www.w3.org/2000/svg" width="1280" height="640" viewBox="0 0 1280 640">
  <defs>
    <linearGradient id="bgGrad" x1="0%" y1="0%" x2="100%" y2="100%">
      <stop offset="0%" stop-color="#080B10"/>
      <stop offset="100%" stop-color="#10152A"/>
    </linearGradient>
    <linearGradient id="accentGrad" x1="0%" y1="0%" x2="100%" y2="100%">
      <stop offset="0%" stop-color="#34D399"/>
      <stop offset="55%" stop-color="#22D3EE"/>
      <stop offset="100%" stop-color="#8B5CF6"/>
    </linearGradient>
    <filter id="softGlow" x="-50%" y="-50%" width="200%" height="200%">
      <feGaussianBlur stdDeviation="16" result="b"/>
      <feMerge><feMergeNode in="b"/><feMergeNode in="SourceGraphic"/></feMerge>
    </filter>
  </defs>
  <rect width="1280" height="640" rx="34" fill="url(#bgGrad)"/>
  <circle cx="1110" cy="150" r="150" fill="#8B5CF6" opacity="0.07"/>
  <circle cx="1040" cy="500" r="190" fill="#22D3EE" opacity="0.05"/>
  <g transform="translate(74,80) scale(0.36)">
    
  <defs>
    <linearGradient id="edgeGrad" x1="0%" y1="0%" x2="100%" y2="100%">
      <stop offset="0%" stop-color="#34D399"/>
      <stop offset="52%" stop-color="#22D3EE"/>
      <stop offset="100%" stop-color="#8B5CF6"/>
    </linearGradient>
    <linearGradient id="nodeGrad" x1="0%" y1="0%" x2="100%" y2="100%">
      <stop offset="0%" stop-color="#34D399"/>
      <stop offset="55%" stop-color="#22D3EE"/>
      <stop offset="100%" stop-color="#8B5CF6"/>
    </linearGradient>
    <filter id="glow" x="-60%" y="-60%" width="220%" height="220%">
      <feGaussianBlur stdDeviation="4.10" result="blur"/>
      <feMerge><feMergeNode in="blur"/><feMergeNode in="SourceGraphic"/></feMerge>
    </filter>
  </defs>
  
  <polygon points="256.0,97.3 393.5,176.6 393.5,335.4 256.0,414.7 118.5,335.4 118.5,176.6" fill="none" stroke="url(#edgeGrad)" stroke-width="9.2" stroke-linecap="round" stroke-linejoin="round" opacity="0.95"/>
  <circle cx="256.0" cy="97.3" r="13.3" fill="url(#nodeGrad)" />
<circle cx="393.5" cy="176.6" r="13.3" fill="url(#nodeGrad)" />
<circle cx="393.5" cy="335.4" r="13.3" fill="url(#nodeGrad)" />
<circle cx="256.0" cy="414.7" r="13.3" fill="url(#nodeGrad)" />
<circle cx="118.5" cy="335.4" r="13.3" fill="url(#nodeGrad)" />
<circle cx="118.5" cy="176.6" r="13.3" fill="url(#nodeGrad)" />
  
    <circle cx="256.0" cy="170.3" r="3.6" fill="#22D3EE" opacity="0.95"/>
    <circle cx="256.0" cy="341.7" r="3.6" fill="#8B5CF6" opacity="0.95"/>
    
  <polyline points="168.7,256.0 211.6,256.0 237.0,237.0 256.0,308.4 275.0,208.4 298.9,275.0 343.3,275.0" fill="none" stroke="url(#edgeGrad)" stroke-width="10.8" stroke-linecap="round" stroke-linejoin="round" filter="url(#glow)"/>

  </g>
  <text x="270" y="200" fill="#F3F4F6" font-family="Inter, ui-sans-serif, system-ui, sans-serif" font-size="62" font-weight="750" letter-spacing="-1.5">solana-infra-doctor</text>
  <text x="80" y="310" fill="#F3F4F6" font-family="Inter, ui-sans-serif, system-ui, sans-serif" font-size="34" font-weight="600">Diagnose Solana validator, RPC,</text>
  <text x="80" y="356" fill="#F3F4F6" font-family="Inter, ui-sans-serif, system-ui, sans-serif" font-size="34" font-weight="600">and infrastructure health from a single CLI.</text>
  <rect x="80" y="430" width="540" height="76" rx="14" fill="#070A0F" stroke="url(#accentGrad)" stroke-width="2"/>
  <text x="112" y="480" fill="#34D399" font-family="ui-monospace, SFMono-Regular, Menlo, Consolas, monospace" font-size="29">$ sol-doctor</text>
  <text x="312" y="480" fill="#F3F4F6" font-family="ui-monospace, SFMono-Regular, Menlo, Consolas, monospace" font-size="29">compare --profile bot</text>

  <!-- server stack -->
  <g transform="translate(850,125)">
    <rect x="80" y="60" width="235" height="100" rx="20" fill="#111827" stroke="#24324A" stroke-width="2"/>
    <rect x="55" y="180" width="280" height="110" rx="22" fill="#0D1422" stroke="#24324A" stroke-width="2"/>
    <rect x="30" y="315" width="330" height="125" rx="24" fill="#0B1220" stroke="#24324A" stroke-width="2"/>
    <line x1="110" y1="112" x2="285" y2="112" stroke="url(#accentGrad)" stroke-width="8" stroke-linecap="round"/>
    <line x1="90" y1="238" x2="300" y2="238" stroke="url(#accentGrad)" stroke-width="8" stroke-linecap="round"/>
    <line x1="75" y1="380" x2="315" y2="380" stroke="url(#accentGrad)" stroke-width="8" stroke-linecap="round"/>
    <circle cx="285" cy="86" r="7" fill="#34D399"/>
    <circle cx="306" cy="86" r="7" fill="#22D3EE"/>
    <circle cx="305" cy="212" r="7" fill="#34D399"/>
    <circle cx="328" cy="212" r="7" fill="#8B5CF6"/>
    <circle cx="322" cy="350" r="7" fill="#22D3EE"/>
    <circle cx="346" cy="350" r="7" fill="#8B5CF6"/>
    <g transform="translate(112,285) scale(0.26)">
      
  <defs>
    <linearGradient id="edgeGrad" x1="0%" y1="0%" x2="100%" y2="100%">
      <stop offset="0%" stop-color="#34D399"/>
      <stop offset="52%" stop-color="#22D3EE"/>
      <stop offset="100%" stop-color="#8B5CF6"/>
    </linearGradient>
    <linearGradient id="nodeGrad" x1="0%" y1="0%" x2="100%" y2="100%">
      <stop offset="0%" stop-color="#34D399"/>
      <stop offset="55%" stop-color="#22D3EE"/>
      <stop offset="100%" stop-color="#8B5CF6"/>
    </linearGradient>
    <filter id="glow" x="-60%" y="-60%" width="220%" height="220%">
      <feGaussianBlur stdDeviation="4.10" result="blur"/>
      <feMerge><feMergeNode in="blur"/><feMergeNode in="SourceGraphic"/></feMerge>
    </filter>
  </defs>
  
  <polygon points="256.0,97.3 393.5,176.6 393.5,335.4 256.0,414.7 118.5,335.4 118.5,176.6" fill="none" stroke="url(#edgeGrad)" stroke-width="9.2" stroke-linecap="round" stroke-linejoin="round" opacity="0.95"/>
  <circle cx="256.0" cy="97.3" r="13.3" fill="url(#nodeGrad)" />
<circle cx="393.5" cy="176.6" r="13.3" fill="url(#nodeGrad)" />
<circle cx="393.5" cy="335.4" r="13.3" fill="url(#nodeGrad)" />
<circle cx="256.0" cy="414.7" r="13.3" fill="url(#nodeGrad)" />
<circle cx="118.5" cy="335.4" r="13.3" fill="url(#nodeGrad)" />
<circle cx="118.5" cy="176.6" r="13.3" fill="url(#nodeGrad)" />
  
    <circle cx="256.0" cy="170.3" r="3.6" fill="#22D3EE" opacity="0.95"/>
    <circle cx="256.0" cy="341.7" r="3.6" fill="#8B5CF6" opacity="0.95"/>
    
  <polyline points="168.7,256.0 211.6,256.0 237.0,237.0 256.0,308.4 275.0,208.4 298.9,275.0 343.3,275.0" fill="none" stroke="url(#edgeGrad)" stroke-width="10.8" stroke-linecap="round" stroke-linejoin="round" filter="url(#glow)"/>

    </g>
  </g>
</svg>